<svg xmlns="http://www.w3.org/2000/svg" viewBox="0 0 400 300">
  <!-- Background -->
  <defs>
    <linearGradient id="blueGradient" x1="0%" y1="0%" x2="100%" y2="100%">
      <stop offset="0%" style="stop-color:#4A6CF7;stop-opacity:1" />
      <stop offset="100%" style="stop-color:#3A54D1;stop-opacity:1" />
    </linearGradient>
  </defs>
  <rect width="400" height="300" fill="url(#blueGradient)"/>
  
  <!-- Stacked Layers with Perspective -->
  <g transform="translate(200, 150) rotate(10)">
    <!-- Bottom Layer -->
    <path d="M-100 50 L100 50 L110 70 L-110 70 Z" fill="#5D7AD4" opacity="0.7"/>
    
    <!-- Middle Layer -->
    <path d="M-90 30 L90 30 L100 50 L-100 50 Z" fill="#6F8BDF" opacity="0.8"/>
    
    <!-- Top Layer -->
    <path d="M-80 10 L80 10 L90 30 L-90 30 Z" fill="#8BA2E8"/>
    
    <!-- Graph/Progress Elements -->
    <g transform="translate(-40, 0)">
      <rect x="0" y="-10" width="20" height="40" fill="#FFD700" rx="5" ry="5"/>
      <rect x="30" y="-20" width="20" height="50" fill="#FF6B6B" rx="5" ry="5"/>
      <rect x="60" y="-30" width="20" height="60" fill="#4ECDC4" rx="5" ry="5"/>
    </g>
  </g>
  
  <!-- Progress/Upward Trend Symbol -->
  <g transform="translate(200, 100) scale(0.7)">
    <path d="M-40 30 L-20 10 L0 30 L20 0 L40 30" 
          fill="none" stroke="#FFFFFF" stroke-width="4" stroke-linecap="round"/>
    <circle cx="0" cy="15" r="10" fill="#FFFFFF" opacity="0.2"/>
  </g>
</svg>
